<?xml version="1.0" encoding="utf-8"?>
<!-- Generator: Adobe Illustrator 16.0.0, SVG Export Plug-In . SVG Version: 6.00 Build 0)  -->
<!DOCTYPE svg PUBLIC "-//W3C//DTD SVG 1.1//EN" "http://www.w3.org/Graphics/SVG/1.1/DTD/svg11.dtd">
<svg version="1.1" id="Layer_1" xmlns="http://www.w3.org/2000/svg" xmlns:xlink="http://www.w3.org/1999/xlink" x="0px" y="0px"
	 width="45.458px" height="42.667px" viewBox="16.625 16.625 45.458 42.667" enable-background="new 16.625 16.625 45.458 42.667"
	 xml:space="preserve">
<path fill="#EF493B" d="M38,36c-1.104,0-2,0.896-2,2c0,1.104,0.896,2,2,2c1.104,0,2-0.896,2-2C40,36.896,39.104,36,38,36z M38,34
	c2.209,0,4,1.791,4,4s-1.791,4-4,4s-4-1.791-4-4S35.791,34,38,34z M57.75,36c-1.104,0-2,0.896-2,2c0,1.104,0.896,2,2,2s2-0.896,2-2
	C59.75,36.896,58.854,36,57.75,36z M61.75,38c0,1.904-1.33,3.497-3.111,3.9C56.811,51.635,48.266,59,38,59c-11.598,0-21-9.402-21-21
	c0-11.598,9.402-21,21-21c10.266,0,18.811,7.365,20.639,17.099C60.42,34.503,61.75,36.096,61.75,38z M53.75,38
	c0-1.45,0.771-2.719,1.926-3.42C54.078,26.274,46.771,20,38,20c-9.941,0-18,8.059-18,18c0,9.941,8.059,18,18,18
	c8.771,0,16.078-6.273,17.676-14.58C54.521,40.719,53.75,39.449,53.75,38z"/>
</svg>
