<?xml version="1.0" encoding="utf-8"?>
<!-- Generator: Adobe Illustrator 16.0.0, SVG Export Plug-In . SVG Version: 6.00 Build 0)  -->
<!DOCTYPE svg PUBLIC "-//W3C//DTD SVG 1.1//EN" "http://www.w3.org/Graphics/SVG/1.1/DTD/svg11.dtd">
<svg version="1.1" id="Capa_1" xmlns="http://www.w3.org/2000/svg" xmlns:xlink="http://www.w3.org/1999/xlink" x="0px" y="0px"
	 width="64px" height="64px" viewBox="0 0 64 64" enable-background="new 0 0 64 64" xml:space="preserve">
<g>
	<path fill="#FFFFFF" d="M29.46,42.534c0.68,0.679,1.581,1.052,2.539,1.052s1.86-0.373,2.54-1.052l8.345-8.341
		c1.062-1.063,0.929-1.927,0.755-2.347c-0.175-0.421-0.688-1.129-2.195-1.129h-4.555V15.533c0-2.713-2.207-4.92-4.919-4.92
		c-2.713,0-4.92,2.207-4.92,4.92v15.185h-4.492c-1.502,0-2.019,0.707-2.193,1.128c-0.175,0.421-0.309,1.285,0.753,2.347
		L29.46,42.534z M22.555,32.591h6.364V15.533c0.001-1.679,1.369-3.047,3.049-3.047c1.681,0,3.048,1.367,3.048,3.047v17.058h6.428
		c0.141,0,0.25,0.011,0.336,0.024c-0.051,0.068-0.12,0.154-0.221,0.254l-8.345,8.341c-0.612,0.613-1.817,0.613-2.431,0l-8.344-8.341
		c-0.099-0.1-0.17-0.184-0.22-0.254C22.304,32.602,22.414,32.591,22.555,32.591z"/>
	<path fill="#FFFFFF" d="M53.813,37.999c-0.517,0-0.937,0.42-0.937,0.937v7.556H11.123v-8.509c0-0.516-0.42-0.935-0.937-0.935
		c-0.516,0-0.936,0.42-0.936,0.935v9.443c0,0.518,0.42,0.938,0.936,0.938h43.626c0.518,0,0.938-0.421,0.938-0.938v-8.49
		C54.75,38.419,54.33,37.999,53.813,37.999z"/>
</g>
</svg>
