<?xml version="1.0" encoding="utf-8"?>
<!-- Generator: Adobe Illustrator 16.0.0, SVG Export Plug-In . SVG Version: 6.00 Build 0)  -->
<!DOCTYPE svg PUBLIC "-//W3C//DTD SVG 1.1//EN" "http://www.w3.org/Graphics/SVG/1.1/DTD/svg11.dtd">
<svg version="1.1" id="Capa_1" xmlns="http://www.w3.org/2000/svg" xmlns:xlink="http://www.w3.org/1999/xlink" x="0px" y="0px"
	 width="512px" height="512px" viewBox="0 0 512 512" enable-background="new 0 0 512 512" xml:space="preserve">
<path fill="#992C2C" d="M0,256c0,141.386,114.615,256,256,256c141.386,0,256-114.614,256-256C512,114.615,397.386,0,256,0
	C114.615,0,0,114.615,0,256z M448,256c0,36.618-10.256,70.841-28.044,99.956L156.045,92.044C185.16,74.255,219.382,64,256,64
	C362.038,64,448,149.961,448,256z M64,256c0-36.618,10.256-70.839,28.045-99.956l263.911,263.912
	C326.839,437.745,292.618,448,256,448C149.962,448,64,362.039,64,256z"/>
</svg>
