<?xml version="1.0" encoding="utf-8"?>
<!-- Generator: Adobe Illustrator 16.0.0, SVG Export Plug-In . SVG Version: 6.00 Build 0)  -->
<!DOCTYPE svg PUBLIC "-//W3C//DTD SVG 1.1//EN" "http://www.w3.org/Graphics/SVG/1.1/DTD/svg11.dtd">
<svg version="1.1" id="Capa_1" xmlns="http://www.w3.org/2000/svg" xmlns:xlink="http://www.w3.org/1999/xlink" x="0px" y="0px"
	 width="512px" height="512px" viewBox="0 0 512 512" enable-background="new 0 0 512 512" xml:space="preserve">
<path fill="#166799" d="M388.636,223.393l-0.078,1.002c0,0.128,0.078,0.241,0.078,0.35c0,0.256-0.085,0.5-0.101,0.761
	l-10.68,218.211h-0.077c-0.917,17.112-20.542,42.983-126.24,42.983c-105.691,0-125.293-25.871-126.233-42.983h-0.023
	l-10.656-218.211c-0.03-0.242-0.108-0.505-0.108-0.761c0-0.125,0.039-0.241,0.039-0.35l-0.039-1.002h0.108
	c0.396-1.853,1.453-3.654,3.123-5.382c13.672,13.828,68.354,16.107,133.786,16.107c65.435,0,120.171-2.28,133.77-16.107
	c1.693,1.729,2.827,3.53,3.122,5.382H388.636z M407.306,140.465v25.478c0,5.234-5.329,10.208-14.771,14.697
	c-24.922,11.672-78.641,19.781-141,19.781c-62.293,0-116.063-8.109-140.93-19.781c-9.499-4.492-14.788-9.463-14.788-14.697v-25.478
	c0-13.412,34.521-24.992,84.932-30.711V56.279c0-8.589,7.029-15.625,15.626-15.625h104.634c8.605,0,15.656,7.052,15.656,15.657
	v52.873C370.106,114.635,407.299,126.587,407.306,140.465z M288.335,85.961c0-9.335-1.274-16.977-2.843-16.977
	c-1.563,0-10.5,0-19.797,0h-33.98c-9.351,0-18.259,0-19.839,0c-1.542,0-2.835,7.642-2.835,16.977v21.342l4.303-0.256
	c12.197-0.691,24.996-1.072,38.156-1.08c12.729,0,25.015,0.389,36.836,1.002V85.961z"/>
</svg>
