<?xml version="1.0" encoding="utf-8"?>
<!-- Generator: Adobe Illustrator 16.0.0, SVG Export Plug-In . SVG Version: 6.00 Build 0)  -->
<!DOCTYPE svg PUBLIC "-//W3C//DTD SVG 1.1//EN" "http://www.w3.org/Graphics/SVG/1.1/DTD/svg11.dtd">
<svg version="1.1" id="Layer_1" xmlns="http://www.w3.org/2000/svg" xmlns:xlink="http://www.w3.org/1999/xlink" x="0px" y="0px"
	 width="54px" height="35.334px" viewBox="4.5 11.5 54 35.334" enable-background="new 4.5 11.5 54 35.334" xml:space="preserve">
<path fill="#EAEAEA" d="M54.667,18.333c0,1.289-0.898,2.333-2.007,2.333H11.673c-1.108,0-2.006-1.045-2.006-2.333l0,0
	c0-1.289,0.898-2.333,2.006-2.333H52.66C53.769,16,54.667,17.045,54.667,18.333L54.667,18.333z"/>
<path fill="#EAEAEA" d="M54.667,29.333c0,1.289-0.898,2.333-2.007,2.333H11.673c-1.108,0-2.006-1.045-2.006-2.333l0,0
	c0-1.289,0.898-2.333,2.006-2.333H52.66C53.769,27,54.667,28.045,54.667,29.333L54.667,29.333z"/>
<path fill="#EAEAEA" d="M54.667,40.334c0,1.288-0.898,2.333-2.007,2.333H11.673c-1.108,0-2.006-1.045-2.006-2.333l0,0
	c0-1.289,0.898-2.334,2.006-2.334H52.66C53.769,38,54.667,39.045,54.667,40.334L54.667,40.334z"/>
</svg>
